<svg width="32" height="32" viewBox="0 0 32 32" fill="none" xmlns="http://www.w3.org/2000/svg">
    <path
        d="M24 0C28.4183 0 32 3.58172 32 8V24C32 28.4183 28.4183 32 24 32H8C3.58172 32 0 28.4183 0 24V8C0 3.58172 3.58172 0 8 0H24Z"
        fill="#3B82F6" />

    <g clip-path="url(#clip0_1_865)">
        <path
            d="M16.0001 9.625C15.7786 9.625 15.5598 9.66328 15.352 9.73711L7.68209 12.507C7.42232 12.6027 7.25005 12.8488 7.25005 13.125C7.25005 13.4012 7.42232 13.6473 7.68209 13.743L9.26529 14.3145C8.81685 15.0199 8.56255 15.8539 8.56255 16.7316V17.5C8.56255 18.2766 8.26724 19.0777 7.95279 19.7094C7.77505 20.0648 7.57271 20.4148 7.33755 20.7375C7.25005 20.8551 7.22545 21.0082 7.27466 21.1477C7.32388 21.2871 7.43873 21.391 7.58091 21.4266L9.33091 21.8641C9.44576 21.8941 9.5688 21.8723 9.66998 21.8094C9.77115 21.7465 9.84224 21.6426 9.86412 21.525C10.0993 20.3547 9.98169 19.3047 9.80669 18.5527C9.7192 18.1645 9.60162 17.768 9.43755 17.4043V16.7316C9.43755 15.9059 9.71646 15.1266 10.2004 14.5031C10.5532 14.0793 11.0098 13.7375 11.5458 13.527L15.8387 11.8398C16.0629 11.7523 16.3172 11.8617 16.4047 12.0859C16.4922 12.3102 16.3829 12.5645 16.1586 12.652L11.8657 14.3391C11.5266 14.473 11.2286 14.6781 10.9852 14.9297L15.3493 16.5047C15.5571 16.5785 15.7758 16.6168 15.9973 16.6168C16.2188 16.6168 16.4376 16.5785 16.6454 16.5047L24.318 13.743C24.5778 13.65 24.7501 13.4012 24.7501 13.125C24.7501 12.8488 24.5778 12.6027 24.318 12.507L16.6481 9.73711C16.4403 9.66328 16.2215 9.625 16.0001 9.625ZM10.7501 19.9062C10.7501 20.8715 13.1016 21.875 16.0001 21.875C18.8985 21.875 21.2501 20.8715 21.2501 19.9062L20.8317 15.9305L16.9434 17.3359C16.6399 17.4453 16.32 17.5 16.0001 17.5C15.6801 17.5 15.3575 17.4453 15.0567 17.3359L11.1684 15.9305L10.7501 19.9062Z"
            fill="white" />
    </g>
    <defs>
        <clipPath id="clip0_1_865">
            <path d="M7.25 8.75H24.75V22.75H7.25V8.75Z" fill="white" />
        </clipPath>
    </defs>
</svg>