<svg
    viewBox="0 0 18 14"
    fill="none"
    xmlns="http://www.w3.org/2000/svg"
>
    <path
        d="M8.75005 0.875C8.52857 0.875 8.30982 0.913281 8.10201 0.987109L0.432086 3.75703C0.17232 3.85273 5.46714e-05 4.09883 5.46714e-05 4.375C5.46714e-05 4.65117 0.17232 4.89727 0.432086 4.99297L2.01529 5.56445C1.56685 6.26992 1.31255 7.10391 1.31255 7.98164V8.75C1.31255 9.52656 1.01724 10.3277 0.702789 10.9594C0.525055 11.3148 0.322711 11.6648 0.0875547 11.9875C5.46723e-05 12.1051 -0.0245547 12.2582 0.024664 12.3977C0.0738828 12.5371 0.188727 12.641 0.330914 12.6766L2.08091 13.1141C2.19576 13.1441 2.3188 13.1223 2.41998 13.0594C2.52115 12.9965 2.59224 12.8926 2.61412 12.775C2.84927 11.6047 2.73169 10.5547 2.55669 9.80273C2.4692 9.41445 2.35162 9.01797 2.18755 8.6543V7.98164C2.18755 7.15586 2.46646 6.37656 2.95044 5.75312C3.30318 5.3293 3.75982 4.9875 4.29576 4.77695L8.58873 3.08984C8.81294 3.00234 9.06724 3.11172 9.15474 3.33594C9.24224 3.56016 9.13287 3.81445 8.90865 3.90195L4.61568 5.58906C4.27662 5.72305 3.97857 5.92812 3.73521 6.17969L8.09927 7.75469C8.30709 7.82852 8.52584 7.8668 8.74732 7.8668C8.9688 7.8668 9.18755 7.82852 9.39537 7.75469L17.068 4.99297C17.3278 4.9 17.5001 4.65117 17.5001 4.375C17.5001 4.09883 17.3278 3.85273 17.068 3.75703L9.3981 0.987109C9.19029 0.913281 8.97154 0.875 8.75005 0.875ZM3.50005 11.1562C3.50005 12.1215 5.85162 13.125 8.75005 13.125C11.6485 13.125 14.0001 12.1215 14.0001 11.1562L13.5817 7.18047L9.69341 8.58594C9.3899 8.69531 9.06998 8.75 8.75005 8.75C8.43013 8.75 8.10748 8.69531 7.80669 8.58594L3.91841 7.18047L3.50005 11.1562Z"
        fill="white"
    />
</svg>